<?xml version="1.0" encoding="iso-8859-1"?>
<!-- Generator: Adobe Illustrator 18.0.0, SVG Export Plug-In . SVG Version: 6.00 Build 0)  -->
<!DOCTYPE svg PUBLIC "-//W3C//DTD SVG 1.1//EN" "http://www.w3.org/Graphics/SVG/1.1/DTD/svg11.dtd">
<svg version="1.1" id="Capa_1" xmlns="http://www.w3.org/2000/svg" xmlns:xlink="http://www.w3.org/1999/xlink" x="0px" y="0px"
	 viewBox="0 0 401.07 401.07" style="enable-background:new 0 0 401.07 401.07;" xml:space="preserve">
<g>
	<path d="M314.787,270.363c-17.893,0-32.729,13.31-35.145,30.549h-36.527c-7.984-9.775-19.004-16.424-31.213-18.995V203.72
		c0-2.006,6.09-5.177,10.119-7.275c8.813-4.59,20.881-10.875,20.881-25.015c0-14.14-12.068-20.425-20.881-25.014
		c-4.029-2.099-10.119-5.271-10.119-7.275c0-2.004,6.088-5.175,10.117-7.273c8.813-4.589,20.883-10.874,20.883-25.013
		s-12.07-20.423-20.881-25.013c-4.031-2.098-10.119-5.269-10.119-7.273c0-2.003,6.088-5.174,10.117-7.272
		c8.813-4.589,20.883-10.873,20.883-25.012c0-14.139-12.07-20.423-20.883-25.012c-4.029-2.099-10.117-5.269-10.117-7.272
		c0-5.523-4.479-10-10-10c-5.523,0-10,4.477-10,10c0,14.138,12.068,20.423,20.881,25.012c4.029,2.098,10.119,5.269,10.119,7.272
		c0,2.004-6.09,5.175-10.119,7.272c-8.813,4.589-20.881,10.874-20.881,25.012c0,14.139,12.068,20.424,20.881,25.013
		c4.029,2.099,10.119,5.27,10.119,7.273c0,2.005-6.09,5.176-10.119,7.273c-8.813,4.589-20.881,10.874-20.881,25.013
		s12.068,20.424,20.881,25.014c4.029,2.099,10.119,5.27,10.119,7.275c0,2.006-6.09,5.178-10.119,7.276
		c-8.813,4.589-20.881,10.874-20.881,25.014v77.69c-13.295,2.104-25.369,9.003-33.945,19.502H121.43
		c-2.418-17.238-17.254-30.549-35.146-30.549c-19.574,0-35.5,15.926-35.5,35.5v59.709c0,19.574,15.926,35.498,35.5,35.498
		c17.892,0,32.729-13.31,35.146-30.548h36.527c10.402,12.735,25.945,20.192,42.578,20.192s32.178-7.457,42.58-20.192h36.527
		c2.416,17.238,17.252,30.548,35.145,30.548c19.576,0,35.5-15.924,35.5-35.498v-59.709
		C350.287,286.289,334.363,270.363,314.787,270.363z M101.781,365.572c0,8.546-6.951,15.498-15.498,15.498
		c-8.547,0-15.5-6.952-15.5-15.498v-59.709c0-8.547,6.953-15.5,15.5-15.5c8.547,0,15.498,6.953,15.498,15.5V365.572z
		 M279.031,350.522h-40.955c-3.355,0-6.486,1.683-8.338,4.479c-6.516,9.839-17.432,15.713-29.203,15.713
		c-11.77,0-22.686-5.874-29.201-15.713c-1.854-2.797-4.984-4.479-8.338-4.479h-40.957v-29.61h40.957
		c3.354,0,6.484-1.682,8.338-4.479c6.516-9.84,17.432-15.715,29.201-15.715c11.771,0,22.688,5.875,29.203,15.715
		c1.852,2.797,4.982,4.479,8.338,4.479h40.955V350.522z M330.287,365.572c0,8.546-6.953,15.498-15.5,15.498
		c-8.545,0-15.498-6.952-15.498-15.498v-59.709c0-8.547,6.953-15.5,15.498-15.5c8.547,0,15.5,6.953,15.5,15.5V365.572z"/>
	<circle cx="200.535" cy="335.717" r="18.5"/>
</g>
<g>
</g>
<g>
</g>
<g>
</g>
<g>
</g>
<g>
</g>
<g>
</g>
<g>
</g>
<g>
</g>
<g>
</g>
<g>
</g>
<g>
</g>
<g>
</g>
<g>
</g>
<g>
</g>
<g>
</g>
</svg>
