<svg height="512pt" viewBox="-154 0 512 512.001" width="512pt" xmlns="http://www.w3.org/2000/svg"><path d="m182.929688 193.976562-19.835938-28.644531-6.214844-136.710937c5.210938-2.339844 8.847656-7.566406 8.847656-13.648438 0-8.269531-6.703124-14.972656-14.972656-14.972656h-96.730468c-8.269532 0-14.972657 6.703125-14.972657 14.972656 0 6.082032 3.636719 11.308594 8.847657 13.648438l-6.21875 136.710937-19.832032 28.644531c-14.292968 20.640626-21.847656 44.816407-21.847656 69.921876v203.191406c0 24.761718 20.148438 44.910156 44.914062 44.910156h114.949219c24.765625 0 44.914063-20.148438 44.914063-44.910156v-203.191406c0-25.101563-7.554688-49.28125-21.847656-69.921876zm-23.066407 288.082032h-114.949219c-8.257812 0-14.972656-6.714844-14.972656-14.96875v-30.902344h144.894532v30.902344c0 8.253906-6.71875 14.96875-14.972657 14.96875zm-91.113281-303.21875c1.601562-2.3125 2.515625-5.03125 2.644531-7.84375l6.417969-141.054688h49.152344l6.414062 141.054688c.128906 2.8125 1.046875 5.53125 2.648438 7.84375l22.285156 32.183594c10.808594 15.609374 16.523438 33.890624 16.523438 52.875v42.117187h-144.894532v-42.117187c0-18.984376 5.714844-37.265626 16.519532-52.875zm-38.808594 227.40625v-70.289063h144.894532v70.289063zm0 0"/></svg>