<svg height="512pt" viewBox="-143 0 511 512" width="512pt" xmlns="http://www.w3.org/2000/svg"><path d="m112.871094 213.78125c25.417968 0 48.289062 11.089844 64.046875 28.675781h46.421875c-3.050782-17.320312-9.78125-33.796875-19.945313-48.480469l-19.835937-28.644531-6.21875-136.710937c5.210937-2.339844 8.847656-7.566406 8.847656-13.648438 0-8.269531-6.703125-14.972656-14.972656-14.972656h-116.691406c-8.269532 0-14.972657 6.703125-14.972657 14.972656 0 6.082032 3.636719 11.308594 8.847657 13.648438l-6.21875 136.710937-19.832032 28.644531c-10.167968 14.683594-16.898437 31.160157-19.949218 48.480469h46.421874c15.761719-17.585937 38.628907-28.675781 64.050782-28.675781zm0 0"/><path d="m112.871094 385.8125c-25.421875 0-48.292969-11.089844-64.050782-28.679688h-48.320312v109.953126c0 24.765624 20.148438 44.914062 44.914062 44.914062h134.910157c24.765625 0 44.914062-20.148438 44.914062-44.914062v-109.953126h-48.320312c-15.757813 17.589844-38.628907 28.679688-64.046875 28.679688zm0 0"/><path d="m26.851562 299.796875c0-9.578125 1.597657-18.785156 4.5-27.394531h-30.851562v54.789062h30.851562c-2.902343-8.609375-4.5-17.816406-4.5-27.394531zm0 0"/><path d="m198.886719 299.796875c0 9.578125-1.597657 18.785156-4.5 27.394531h28.953125v-54.789062h-28.953125c2.902343 8.609375 4.5 17.816406 4.5 27.394531zm0 0"/><path d="m168.945312 299.796875c0-30.917969-25.15625-56.074219-56.074218-56.074219-30.921875 0-56.078125 25.152344-56.078125 56.074219s25.15625 56.074219 56.078125 56.074219c30.917968 0 56.074218-25.152344 56.074218-56.074219zm0 0"/></svg>