<svg height="512pt" viewBox="-85 0 512 512" width="512pt" xmlns="http://www.w3.org/2000/svg"><path d="m49.179688 227.550781c10.621093 2.277344 19.199218 10.378907 22.390624 21.140625 6.210938 20.96875 19.300782 39.828125 36.839844 53.109375 18.128906 13.71875 39.78125 20.980469 62.589844 20.980469s44.460938-7.261719 62.589844-20.980469c17.539062-13.28125 30.628906-32.140625 36.839844-53.109375 3.191406-10.761718 11.769531-18.863281 22.390624-21.140625 26.148438-5.601562 45.71875-27.570312 48.769532-53.640625h-341.179688c3.050782 26.070313 22.621094 48.039063 48.769532 53.640625zm0 0"/><path d="m198.101562 93.730469h-165.320312c-18.082031 0-32.78125 14.691406-32.78125 32.738281v17.441406h198.101562zm0 0"/><path d="m309.21875 93.730469h-21.253906v50.179687h54.035156v-17.441406c0-18.046875-14.699219-32.738281-32.78125-32.738281zm0 0"/><path d="m258.101562 36.824219c0-3.761719 3.082032-6.824219 6.875-6.824219h56.480469c8.285157 0 15-6.714844 15-15s-6.714843-15-15-15h-56.480469c-20.335937 0-36.875 16.519531-36.875 36.824219v107.085937h30zm0 0"/><path d="m218.996094 456.550781c-11.160156 0-20.207032-9.023437-20.207032-20.15625v-87.121093c-8.960937 2.394531-18.277343 3.617187-27.789062 3.617187s-18.828125-1.222656-27.789062-3.617187v87.121093c0 11.132813-9.046876 20.15625-20.207032 20.15625-15.347656 0-27.789062 12.414063-27.789062 27.726563s12.441406 27.722656 27.789062 27.722656h95.992188c15.347656 0 27.789062-12.414062 27.789062-27.722656 0-15.3125-12.441406-27.726563-27.789062-27.726563zm0 0"/></svg>