<?xml version="1.0" encoding="UTF-8" standalone="no"?>
<!-- Generator: Adobe Illustrator 19.0.0, SVG Export Plug-In . SVG Version: 6.00 Build 0)  -->

<svg
   xmlns:dc="http://purl.org/dc/elements/1.1/"
   xmlns:cc="http://creativecommons.org/ns#"
   xmlns:rdf="http://www.w3.org/1999/02/22-rdf-syntax-ns#"
   xmlns:svg="http://www.w3.org/2000/svg"
   xmlns="http://www.w3.org/2000/svg"
   xmlns:sodipodi="http://sodipodi.sourceforge.net/DTD/sodipodi-0.dtd"
   xmlns:inkscape="http://www.inkscape.org/namespaces/inkscape"
   version="1.1"
   id="Capa_1"
   x="0px"
   y="0px"
   viewBox="0 0 25.203 25.203"
   style="enable-background:new 0 0 25.203 25.203;"
   xml:space="preserve"
   sodipodi:docname="fruit.svg"
   inkscape:version="0.92.3 (2405546, 2018-03-11)"><metadata
   id="metadata915"><rdf:RDF><cc:Work
       rdf:about=""><dc:format>image/svg+xml</dc:format><dc:type
         rdf:resource="http://purl.org/dc/dcmitype/StillImage" /></cc:Work></rdf:RDF></metadata><defs
   id="defs913" /><sodipodi:namedview
   pagecolor="#ffffff"
   bordercolor="#666666"
   borderopacity="1"
   objecttolerance="10"
   gridtolerance="10"
   guidetolerance="10"
   inkscape:pageopacity="0"
   inkscape:pageshadow="2"
   inkscape:window-width="1366"
   inkscape:window-height="745"
   id="namedview911"
   showgrid="false"
   inkscape:zoom="22.854423"
   inkscape:cx="12.6015"
   inkscape:cy="14.351708"
   inkscape:window-x="-8"
   inkscape:window-y="-8"
   inkscape:window-maximized="1"
   inkscape:current-layer="Capa_1" />
<g
   id="g878"
   transform="matrix(0.84105855,0,0,0.84105855,2.1045413,2.4743681)"
   style="stroke-width:1.18897784">
	<path
   d="m 11.318,25.203 c -1.777,0 -3.571,-0.425 -5.233,-1.297 -0.362,-0.19 -0.829,-0.109 -1.134,0.197 -1.156,1.155 -2.971,1.157 -4.087,0.041 -1.116,-1.115 -1.116,-2.931 0,-4.046 l 0.12,-0.12 C 1.286,19.676 1.369,19.23 1.192,18.869 -0.93,14.55 -0.072,9.366 3.326,5.967 L 5.94,3.354 c 3.398,-3.399 8.585,-4.256 12.901,-2.137 0.363,0.179 0.809,0.095 1.111,-0.207 l 0.2,-0.2 c 1.08,-1.08 2.966,-1.08 4.046,0 0.541,0.54 0.838,1.259 0.838,2.022 0,0.765 -0.298,1.483 -0.838,2.023 L 24.076,4.977 C 23.771,5.284 23.69,5.75 23.88,6.112 c 2.297,4.379 1.489,9.672 -2.01,13.172 l -2.614,2.613 c -2.171,2.171 -5.033,3.306 -7.938,3.306 z m -5.64,-2.395 c 0.301,0 0.6,0.07 0.871,0.213 3.989,2.092 8.811,1.357 12,-1.831 l 2.614,-2.613 c 3.188,-3.188 3.924,-8.011 1.831,-12 C 22.597,5.82 22.747,4.893 23.369,4.27 l 0.122,-0.122 c 0.351,-0.351 0.545,-0.817 0.545,-1.315 0,-0.497 -0.194,-0.964 -0.545,-1.315 -0.703,-0.703 -1.929,-0.703 -2.632,0 l -0.2,0.2 C 20.054,2.322 19.147,2.483 18.4,2.116 14.467,0.184 9.743,0.964 6.647,4.061 L 4.033,6.674 c -3.095,3.096 -3.877,7.82 -1.944,11.753 0.367,0.746 0.207,1.654 -0.398,2.259 l -0.12,0.12 c -0.725,0.725 -0.725,1.905 0,2.631 0.726,0.725 1.906,0.725 2.632,0 0.415,-0.415 0.95,-0.629 1.475,-0.629 z"
   id="path866"
   inkscape:connector-curvature="0"
   style="stroke-width:1.18897784" />
	<path
   d="m 12.944,21.404 c -0.14,0 -0.26,-0.06 -0.36,-0.149 -0.09,-0.09 -0.14,-0.221 -0.14,-0.351 0,-0.14 0.05,-0.26 0.14,-0.359 0.2,-0.19 0.51,-0.181 0.7,-0.011 0.11,0.12 0.16,0.24 0.16,0.37 0,0.12 -0.06,0.25 -0.15,0.351 -0.1,0.099 -0.23,0.149 -0.35,0.149 z"
   id="path868"
   inkscape:connector-curvature="0"
   style="stroke-width:1.18897784" />
	<path
   d="m 15.254,19.084 c -0.13,0 -0.26,-0.051 -0.35,-0.141 -0.1,-0.1 -0.15,-0.229 -0.15,-0.359 0,-0.13 0.05,-0.261 0.14,-0.351 0.2,-0.2 0.51,-0.189 0.71,-0.01 0.1,0.1 0.15,0.23 0.15,0.36 0,0.13 -0.05,0.26 -0.14,0.35 -0.11,0.101 -0.23,0.151 -0.36,0.151 z"
   id="path870"
   inkscape:connector-curvature="0"
   style="stroke-width:1.18897784" />
	<path
   d="m 17.574,16.774 c -0.14,0 -0.26,-0.06 -0.36,-0.149 -0.09,-0.091 -0.14,-0.221 -0.14,-0.36 0,-0.13 0.05,-0.25 0.14,-0.35 0.2,-0.19 0.52,-0.19 0.71,0 0.1,0.1 0.15,0.22 0.15,0.35 0,0.14 -0.06,0.26 -0.15,0.36 -0.09,0.089 -0.22,0.149 -0.35,0.149 z"
   id="path872"
   inkscape:connector-curvature="0"
   style="stroke-width:1.18897784" />
	<path
   d="m 12.024,18.444 c -0.13,0 -0.26,-0.06 -0.35,-0.149 -0.1,-0.09 -0.15,-0.221 -0.15,-0.36 0,-0.13 0.05,-0.25 0.14,-0.35 0.2,-0.19 0.52,-0.19 0.71,0 0.1,0.1 0.15,0.22 0.15,0.35 0,0.14 -0.05,0.26 -0.15,0.36 -0.09,0.089 -0.22,0.149 -0.35,0.149 z"
   id="path874"
   inkscape:connector-curvature="0"
   style="stroke-width:1.18897784" />
	<path
   d="m 14.344,16.125 c -0.13,0 -0.26,-0.051 -0.36,-0.15 -0.09,-0.09 -0.14,-0.22 -0.14,-0.35 0,-0.141 0.05,-0.271 0.14,-0.36 0.19,-0.18 0.52,-0.18 0.71,0 0.09,0.1 0.15,0.22 0.15,0.36 0,0.13 -0.06,0.26 -0.15,0.35 -0.1,0.099 -0.22,0.15 -0.35,0.15 z"
   id="path876"
   inkscape:connector-curvature="0"
   style="stroke-width:1.18897784" />
</g>
<g
   id="g880">
</g>
<g
   id="g882">
</g>
<g
   id="g884">
</g>
<g
   id="g886">
</g>
<g
   id="g888">
</g>
<g
   id="g890">
</g>
<g
   id="g892">
</g>
<g
   id="g894">
</g>
<g
   id="g896">
</g>
<g
   id="g898">
</g>
<g
   id="g900">
</g>
<g
   id="g902">
</g>
<g
   id="g904">
</g>
<g
   id="g906">
</g>
<g
   id="g908">
</g>
</svg>