<svg id="Layer_1" enable-background="new 0 0 512 512" height="512" viewBox="0 0 512 512" width="512" xmlns="http://www.w3.org/2000/svg"><path d="m91 120h330v90h-330z"/><path d="m142.626 61.793c-5.676 8.761-10.373 18.213-13.916 28.207h254.58c-18.57-52.38-68.62-90-127.29-90-35.715 0-68.219 13.958-92.389 36.683l-18.34-36.683h-84.271v30h65.729z"/><path d="m211 407c0-74.44 60.56-135 135-135 12.82 0 25.23 1.8 36.99 5.15l3.66-37.15h-261.26l27.03 272h108.81c-30.62-24.77-50.23-62.64-50.23-105z"/><path d="m361 303.08v83.27l79.18-25.73c-15.03-30.42-44.37-52.55-79.18-57.54z"/><path d="m449.48 389.15-79.2 25.74 48.91 67.32c19.61-19.08 31.81-45.75 31.81-75.21 0-6.08-.52-12.05-1.52-17.85z"/><path d="m331 386.35v-83.27c-34.81 4.99-64.15 27.12-79.18 57.54z"/><path d="m297.07 499.87c14.62 7.75 31.27 12.13 48.93 12.13s34.31-4.38 48.93-12.13l-48.93-67.35z"/><path d="m242.52 389.15c-1 5.8-1.52 11.77-1.52 17.85 0 29.46 12.2 56.13 31.81 75.21l48.91-67.32z"/></svg>