<svg height="512pt" viewBox="-79 0 512 512.00009" width="512pt" xmlns="http://www.w3.org/2000/svg"><path d="m334.664062 118.667969h-136.332031v-44.761719l94.632813-35.15625c10.351562-3.847656 15.628906-15.359375 11.78125-25.710938-3.847656-10.355468-15.359375-15.625-25.710938-11.785156l-107.667968 40c-7.835938 2.910156-13.03125 10.390625-13.03125 18.75v58.664063h-138.335938c-11.046875 0-20 8.957031-20 20v78.667969c0 11.042968 8.953125 20 20 20h13.273438l46.375 258.199218c1.710937 9.53125 10.003906 16.464844 19.683593 16.464844h156c9.679688 0 17.972657-6.933594 19.683594-16.464844l46.375-258.199218h13.273437c11.046876 0 20-8.957032 20-20v-78.667969c0-11.042969-8.953124-20-20-20zm-294.664062 40h274.664062v38.667969h-274.664062zm198.605469 313.332031h-122.542969l-42.152344-234.664062h206.84375zm0 0"/></svg>