<?xml version="1.0" encoding="iso-8859-1"?>
<!-- Generator: Adobe Illustrator 19.0.0, SVG Export Plug-In . SVG Version: 6.00 Build 0)  -->
<svg version="1.1" id="Capa_1" xmlns="http://www.w3.org/2000/svg" xmlns:xlink="http://www.w3.org/1999/xlink" x="0px" y="0px"
	 viewBox="0 0 512 512" style="enable-background:new 0 0 512 512;" xml:space="preserve">
<g>
	<g>
		<path d="M317.869,181.294c-2.503,0-4.782-1.161-6.254-3.186c-1.463-2.012-1.869-4.52-1.115-6.889
			c12.374-36.355-11.668-63.079-14.82-66.372c-0.002-0.002-0.003-0.004-0.004-0.006c-4.55-5.663-6.028-15.924-6.337-21.278
			c-0.006-0.109-0.009-0.2-0.014-0.305c-0.032-0.631-0.051-1.202-0.052-1.662v-15.06h2.621c6.901,0,12.516-5.615,12.516-12.516
			V12.516C304.409,5.615,298.794,0,291.893,0h-71.788c-6.901,0-12.516,5.615-12.516,12.516v41.503
			c0,6.901,5.615,12.516,12.516,12.516h2.622v15.06c0,3.997-1.183,16.751-6.409,23.251c-3.151,3.293-27.194,30.018-14.818,66.373
			c0.753,2.368,0.348,4.875-1.115,6.888c-1.472,2.025-3.752,3.186-6.255,3.186c-26.849,0-48.693,21.843-48.693,48.693v113.125
			c0,4.147,3.362,7.51,7.51,7.51c4.148,0,7.51-3.362,7.51-7.51V229.987c0-18.568,15.106-33.674,33.674-33.674
			c7.365,0,14.073-3.417,18.404-9.375c4.33-5.957,5.51-13.392,3.238-20.398c-0.012-0.037-0.024-0.073-0.036-0.109
			c-1.566-4.587-2.37-8.981-2.614-13.133h85.741c-0.235,4.157-1.034,8.553-2.598,13.133c-0.013,0.036-0.024,0.072-0.036,0.109
			c-2.273,7.006-1.093,14.44,3.238,20.398c4.331,5.957,11.039,9.374,18.403,9.374c18.568,0,33.673,15.106,33.673,33.674v16.668
			c0,4.147,3.362,7.51,7.51,7.51s7.51-3.362,7.51-7.51v-16.668C366.561,203.137,344.718,181.294,317.869,181.294z M222.608,51.516
			V15.019h0h66.781v36.497h-7.627h-51.526H222.608z M214.669,138.278c3.711-13.98,12.48-23.026,12.567-23.115
			c0.16-0.16,0.314-0.328,0.459-0.503c0.007-0.009,0.014-0.018,0.02-0.027c6.949-8.81,10.014-21.58,10.03-32.995
			c0-0.013,0-0.036,0-0.042V66.537h36.507v15.059c0,0.006,0,0.029,0,0.042c0.071,14.754,4.29,25.244,13.115,36.593
			c0.008,0.01,0.016,0.021,0.024,0.031c2.909,3.767,7.495,10.788,9.917,20.016H214.669z"/>
	</g>
</g>
<g>
	<g>
		<path d="M359.051,285.204c-4.148,0-7.51,3.362-7.51,7.51v196.031c0,4.541-3.695,8.236-8.236,8.236H168.693
			c-4.542,0-8.237-3.695-8.237-8.236v-98.573c0-4.147-3.362-7.51-7.51-7.51s-7.51,3.362-7.51,7.51v98.573
			c0,12.823,10.432,23.255,23.256,23.255h174.612c12.823,0,23.255-10.432,23.255-23.255V292.714
			C366.561,288.566,363.199,285.204,359.051,285.204z"/>
	</g>
</g>
<g>
	<g>
		<path d="M314.207,366.334H197.792c-4.147,0-7.51,3.362-7.51,7.51s3.362,7.51,7.51,7.51h116.415c4.148,0,7.51-3.362,7.51-7.51
			S318.355,366.334,314.207,366.334z"/>
	</g>
</g>
<g>
	<g>
		<path d="M314.207,398.407H197.792c-4.147,0-7.51,3.362-7.51,7.51s3.362,7.51,7.51,7.51h116.415c4.148,0,7.51-3.362,7.51-7.51
			S318.355,398.407,314.207,398.407z"/>
	</g>
</g>
<g>
	<g>
		<path d="M255.999,274.248c-27.525,0-49.086,16.218-49.086,36.922c0,20.704,21.561,36.922,49.086,36.922
			c27.526,0,49.086-16.218,49.086-36.922C305.086,290.467,283.525,274.248,255.999,274.248z M255.999,333.073
			c-18.466,0-34.067-10.03-34.067-21.903s15.601-21.903,34.067-21.903s34.067,10.03,34.067,21.903
			C290.066,323.043,274.465,333.073,255.999,333.073z"/>
	</g>
</g>
<g>
	<g>
		<path d="M208.582,232.654h-22.028c-5.797,0-10.513,4.716-10.513,10.513v21.99c0,4.147,3.362,7.51,7.51,7.51
			c4.147,0,7.51-3.362,7.51-7.51v-17.484h17.522c4.147,0,7.51-3.362,7.51-7.51C216.092,236.016,212.729,232.654,208.582,232.654z"/>
	</g>
</g>
<g>
	<g>
		<path d="M325.444,232.654h-22.028c-4.148,0-7.51,3.362-7.51,7.51c0,4.147,3.362,7.51,7.51,7.51h17.522v17.484
			c0,4.147,3.362,7.51,7.51,7.51s7.51-3.362,7.51-7.51v-21.991C335.958,237.37,331.242,232.654,325.444,232.654z"/>
	</g>
</g>
<g>
	<g>
		<path d="M208.581,453.752h-17.522V436.27c0-4.147-3.362-7.51-7.51-7.51c-4.147,0-7.51,3.362-7.51,7.51v21.989h0.001
			c0,5.797,4.716,10.513,10.513,10.513h22.028c4.147,0,7.51-3.362,7.51-7.51C216.091,457.115,212.729,453.752,208.581,453.752z"/>
	</g>
</g>
<g>
	<g>
		<path d="M328.448,428.76c-4.148,0-7.51,3.362-7.51,7.51v17.484h-17.522c-4.148,0-7.51,3.362-7.51,7.51
			c0.001,4.147,3.363,7.509,7.51,7.509h22.028c5.797,0,10.514-4.716,10.514-10.513v-21.99
			C335.958,432.123,332.596,428.76,328.448,428.76z"/>
	</g>
</g>
<g>
</g>
<g>
</g>
<g>
</g>
<g>
</g>
<g>
</g>
<g>
</g>
<g>
</g>
<g>
</g>
<g>
</g>
<g>
</g>
<g>
</g>
<g>
</g>
<g>
</g>
<g>
</g>
<g>
</g>
</svg>
