<?xml version="1.0" encoding="iso-8859-1"?>
<!-- Generator: Adobe Illustrator 19.0.0, SVG Export Plug-In . SVG Version: 6.00 Build 0)  -->
<svg version="1.1" id="Layer_1" xmlns="http://www.w3.org/2000/svg" xmlns:xlink="http://www.w3.org/1999/xlink" x="0px" y="0px"
	 viewBox="0 0 512 512" style="enable-background:new 0 0 512 512;" xml:space="preserve">
<g>
	<g>
		<g>
			<path d="M349.867,190.08V128c0-0.188-0.094-0.341-0.111-0.529c-0.051-0.794-0.196-1.562-0.469-2.313
				c-0.111-0.324-0.239-0.623-0.393-0.922c-0.299-0.614-0.691-1.169-1.143-1.698c-0.213-0.256-0.393-0.521-0.64-0.742
				c-0.085-0.085-0.137-0.196-0.23-0.273l-42.078-36.079c-4.514-3.891-9.438-8.073-14.669-11.93V34.133
				c0-3.234-1.826-6.187-4.719-7.637l-51.2-25.6c-2.645-1.314-5.794-1.178-8.303,0.375c-2.517,1.562-4.045,4.301-4.045,7.262v64.981
				c-5.231,3.866-10.155,8.047-14.669,11.93l-42.086,36.079c-0.085,0.077-0.137,0.188-0.23,0.273
				c-0.239,0.222-0.427,0.486-0.64,0.742c-0.452,0.529-0.836,1.084-1.143,1.698c-0.154,0.299-0.282,0.597-0.393,0.913
				c-0.273,0.751-0.418,1.527-0.469,2.321c-0.009,0.188-0.102,0.341-0.102,0.529v62.08c-14.865,5.282-25.6,19.345-25.6,36.002
				v192.051h8.533c10.752,0,14.771-1.246,19.558-6.033l4.275-4.267c9.6-8.653,25.549-8.917,36.642-0.879
				c4.224,3.499,11.179,3.413,15.351,0.171c8.491-8.013,24.107-8.363,35.721-0.256c0.41,0.29,0.802,0.606,1.152,0.964l4.668,4.668
				c8.218,8.218,21.589,8.218,29.798,0l16.725-16.725c0.427-0.427,0.785-0.819,1.135-1.212
				c10.931-12.279,24.568-27.631,56.841-27.631h8.533V226.082C375.467,209.425,364.732,195.362,349.867,190.08z M238.933,22.34
				l34.133,17.067v24.03c-0.35-0.145-0.674-0.196-1.015-0.333c-1.954-0.768-3.934-1.399-5.948-1.911
				c-0.785-0.205-1.596-0.469-2.372-0.623c-2.185-0.435-4.412-0.674-6.665-0.742c-0.7-0.017-1.408-0.017-2.108,0
				c-2.278,0.06-4.523,0.307-6.724,0.751c-0.742,0.145-1.51,0.393-2.253,0.589c-2.065,0.529-4.096,1.169-6.093,1.963
				c-0.324,0.137-0.631,0.179-0.956,0.316V22.34z M290.133,358.622c0,13.995-11.383,25.378-25.37,25.378h-17.527
				c-13.986,0-25.37-11.383-25.37-25.378V204.8h17.067v153.822c0,4.582,3.721,8.311,8.303,8.311h17.527
				c4.574,0,8.303-3.729,8.303-8.311V204.8h17.067V358.622z M332.8,187.733h-51.2h-51.2h-51.2v-51.2h153.6V187.733z"/>
			<path d="M322.807,405.948c-0.623,0.691-1.22,1.34-1.835,1.946l-16.674,16.674c-7.432,7.432-17.203,11.153-26.965,11.153
				c-9.771,0-19.524-3.721-26.965-11.153l-4.079-4.079c-5.214-3.294-11.639-2.91-14.327-0.401
				c-11.076,8.67-27.025,8.568-36.898,0.333c-4.122-2.961-11.076-3.217-14.421-0.213l-3.942,3.959
				c-9.216,9.224-18.577,11.034-31.633,11.034h-8.533v38.451c0,21.146,17.203,38.349,38.357,38.349h162.227
				c21.146,0,38.349-17.203,38.349-38.349V384h-8.533C342.332,384,332.851,394.667,322.807,405.948z M213.333,477.867
				c-4.71,0-8.533-3.823-8.533-8.533s3.823-8.533,8.533-8.533s8.533,3.823,8.533,8.533S218.044,477.867,213.333,477.867z
				 M247.467,460.8c-4.71,0-8.533-3.823-8.533-8.533c0-4.71,3.823-8.533,8.533-8.533s8.533,3.823,8.533,8.533
				C256,456.977,252.177,460.8,247.467,460.8z M298.667,477.867c-4.71,0-8.533-3.823-8.533-8.533s3.823-8.533,8.533-8.533
				c4.71,0,8.533,3.823,8.533,8.533S303.377,477.867,298.667,477.867z M332.8,443.733c-4.71,0-8.533-3.823-8.533-8.533
				s3.823-8.533,8.533-8.533s8.533,3.823,8.533,8.533S337.51,443.733,332.8,443.733z"/>
		</g>
	</g>
</g>
<g>
</g>
<g>
</g>
<g>
</g>
<g>
</g>
<g>
</g>
<g>
</g>
<g>
</g>
<g>
</g>
<g>
</g>
<g>
</g>
<g>
</g>
<g>
</g>
<g>
</g>
<g>
</g>
<g>
</g>
</svg>
