<?xml version="1.0" standalone="no"?>
<!DOCTYPE svg PUBLIC "-//W3C//DTD SVG 20010904//EN"
 "http://www.w3.org/TR/2001/REC-SVG-20010904/DTD/svg10.dtd">
<svg version="1.0" xmlns="http://www.w3.org/2000/svg"
 width="700.000000pt" height="700.000000pt" viewBox="0 0 700.000000 700.000000"
 preserveAspectRatio="xMidYMid meet">
<metadata>
Created by potrace 1.11, written by Peter Selinger 2001-2013
</metadata>
<g transform="translate(0.000000,700.000000) scale(0.100000,-0.100000)"
fill="#000000" stroke="none">
<path d="M3000 6969 c-51 -30 -624 -367 -1066 -629 -69 -41 -143 -85 -163 -97
-20 -12 -49 -30 -66 -39 -16 -9 -129 -75 -250 -147 -121 -72 -281 -166 -355
-210 -74 -44 -151 -89 -170 -101 -19 -12 -43 -25 -52 -31 -177 -100 -466 -276
-484 -294 -13 -13 -28 -37 -32 -53 -5 -21 -9 -3059 -3 -3140 2 -37 66 -83 331
-239 392 -231 643 -379 660 -390 15 -9 473 -279 527 -310 15 -9 111 -66 213
-126 377 -223 416 -246 445 -263 17 -9 127 -75 245 -145 262 -157 276 -164
316 -159 17 2 175 89 355 196 178 105 343 202 365 215 l42 23 7 -37 c4 -21 10
-42 14 -48 4 -5 18 -37 31 -70 178 -449 610 -784 1109 -860 83 -13 355 -13
411 -1 43 10 74 16 100 21 47 9 175 48 185 57 5 4 15 8 22 8 22 0 204 93 274
140 109 73 268 221 318 294 8 11 18 23 22 26 3 3 27 37 53 75 55 81 135 243
165 332 217 650 -59 1366 -657 1698 -48 27 -90 53 -93 57 -3 5 -6 600 -6 1322
0 1055 -2 1320 -13 1345 -14 34 -16 36 -655 413 -345 204 -744 440 -1075 636
-107 64 -231 136 -275 162 -44 26 -143 84 -220 130 -509 302 -484 292 -575
239z m144 -261 c28 -17 67 -40 86 -51 43 -24 416 -244 449 -264 l23 -15 -23
-12 c-113 -61 -899 -532 -917 -550 -27 -27 -38 -89 -23 -128 13 -36 66 -68
110 -68 27 0 146 66 559 310 l525 311 76 -44 c42 -24 181 -106 309 -181 l233
-138 -103 -62 c-100 -60 -576 -342 -641 -380 -31 -18 -211 -124 -537 -316 -91
-54 -372 -220 -625 -370 -410 -242 -463 -271 -486 -263 -23 9 -160 89 -487
283 l-113 67 133 78 c73 43 149 87 168 100 19 12 54 34 77 48 24 15 45 27 48
27 3 0 22 11 43 24 20 13 102 62 182 109 80 47 161 94 180 106 19 11 49 28 65
37 85 47 134 87 144 116 16 46 14 71 -12 109 -28 41 -77 60 -124 47 -26 -7
-327 -178 -433 -247 -14 -8 -34 -21 -45 -27 -37 -21 -140 -81 -305 -179 -332
-197 -350 -207 -366 -201 -17 7 -156 88 -409 240 -82 49 -161 95 -174 102
l-24 13 44 26 c111 66 658 389 694 409 22 13 141 84 265 157 124 74 315 188
425 253 110 64 207 122 215 127 88 55 727 428 734 429 5 0 32 -14 60 -32z
m1861 -1099 c116 -68 245 -145 288 -171 43 -26 80 -48 82 -48 2 0 48 -27 102
-59 l98 -59 0 -1231 c0 -677 -3 -1231 -8 -1232 -7 -1 -89 11 -117 18 -45 10
-138 17 -240 17 -144 0 -231 -11 -360 -45 -385 -100 -722 -375 -899 -734 -84
-169 -128 -317 -146 -485 -7 -60 -10 -232 -5 -255 10 -47 -12 -64 -294 -224
-17 -10 -89 -53 -159 -95 -70 -42 -131 -76 -135 -76 -4 0 -8 92 -8 205 -1 172
-4 208 -18 229 -50 77 -152 77 -202 0 -14 -21 -17 -57 -18 -234 0 -114 -3
-207 -6 -206 -3 2 -90 54 -195 116 -104 62 -206 122 -225 133 -19 10 -145 85
-280 165 -135 80 -254 150 -265 156 -11 6 -31 19 -45 27 -29 19 -212 127 -252
149 -15 8 -269 158 -566 334 l-539 318 1 1404 0 1403 55 -31 c31 -18 169 -99
306 -180 l250 -148 1 -518 c0 -574 -3 -548 67 -590 631 -376 870 -512 900
-512 44 0 99 38 112 76 6 19 10 200 9 463 0 363 2 431 14 426 11 -4 111 -62
177 -102 11 -7 27 -16 35 -20 8 -4 76 -44 150 -88 74 -45 142 -85 150 -88 8
-4 29 -16 45 -27 17 -11 46 -28 65 -39 l36 -19 -1 -983 c0 -886 2 -987 16
-1019 20 -45 76 -75 123 -66 42 8 96 60 97 95 0 14 2 464 2 999 l2 973 175
103 c96 57 337 199 535 316 198 117 380 224 405 238 25 14 56 33 70 42 14 10
169 102 345 205 176 104 352 207 390 230 39 23 102 60 142 83 100 59 131 87
139 128 8 45 -1 78 -31 109 -30 29 -64 40 -103 32 -16 -3 -122 -62 -238 -130
-115 -68 -292 -173 -394 -233 -102 -60 -386 -229 -633 -374 -246 -146 -462
-273 -480 -284 -17 -10 -118 -70 -224 -132 -106 -63 -199 -117 -208 -120 -9
-4 -66 24 -137 66 -68 40 -198 117 -289 171 -91 53 -186 110 -212 127 l-46 29
286 169 c157 93 306 181 332 196 25 15 78 46 116 68 39 23 84 49 101 59 56 34
475 281 754 446 151 89 344 204 429 254 84 50 154 91 156 91 1 0 46 27 100 60
54 32 101 58 104 56 3 -2 101 -59 216 -127z m-3297 -1135 c136 -81 270 -160
297 -177 l51 -29 0 -394 c0 -217 -2 -394 -5 -394 -2 0 -25 13 -50 28 -25 16
-53 31 -61 35 -8 4 -123 71 -255 150 l-240 143 0 392 c-1 216 3 392 7 392 5 0
120 -66 256 -146z m3702 -1878 c14 -4 41 -9 60 -12 19 -3 74 -19 122 -34 495
-165 826 -635 812 -1153 -1 -56 -5 -113 -7 -127 -3 -14 -8 -43 -12 -65 -11
-65 -53 -199 -84 -267 -62 -138 -145 -254 -263 -369 -66 -65 -206 -169 -226
-169 -6 0 -12 -3 -14 -8 -5 -12 -155 -77 -228 -100 -126 -38 -227 -53 -365
-53 -296 1 -596 125 -809 336 -153 150 -237 285 -307 492 -15 46 -26 83 -24
83 2 0 -1 15 -6 33 -22 77 -29 262 -15 390 55 499 474 940 966 1017 41 7 82
13 90 15 26 5 284 -3 310 -9z"/>
<path d="M909 3076 c-19 -6 -43 -26 -56 -45 -23 -33 -23 -39 -23 -300 0 -246
2 -268 20 -298 49 -81 169 -75 205 10 17 40 20 515 4 564 -19 58 -87 89 -150
69z"/>
<path d="M1369 2832 c-61 -30 -63 -40 -63 -338 -1 -241 1 -273 17 -297 51 -78
152 -79 203 -2 14 21 16 63 16 294 1 243 -1 271 -18 300 -32 54 -95 72 -155
43z"/>
<path d="M5088 2364 c-2 -1 -23 -5 -46 -9 -208 -31 -442 -177 -581 -363 -73
-97 -148 -257 -165 -352 -2 -14 -9 -44 -14 -67 -10 -44 -9 -266 2 -318 29
-141 99 -298 176 -399 42 -55 142 -153 200 -196 433 -319 1045 -212 1345 236
107 158 154 306 161 494 2 84 -1 144 -10 182 -7 32 -12 59 -10 61 10 9 -69
204 -111 275 -86 144 -251 303 -330 318 -43 8 -95 -17 -118 -55 -34 -58 -15
-126 46 -169 91 -63 177 -165 225 -265 117 -241 88 -539 -72 -742 -55 -71 -60
-76 -121 -124 -143 -113 -286 -160 -466 -155 -114 3 -188 22 -294 74 -181 89
-310 244 -372 445 -26 86 -25 297 1 380 77 240 244 414 466 484 75 24 100 28
194 36 79 7 120 31 137 82 18 57 -5 113 -59 142 -19 10 -175 15 -184 5z"/>
<path d="M5502 1750 c-20 -15 -131 -123 -247 -239 -115 -116 -213 -211 -217
-211 -4 0 -11 6 -15 13 -4 6 -31 33 -60 60 -47 42 -57 47 -99 47 -39 0 -51 -5
-80 -34 -29 -29 -34 -41 -34 -79 0 -53 7 -62 142 -196 96 -94 127 -111 185
-97 26 7 559 530 595 585 37 54 14 136 -44 164 -48 22 -83 18 -126 -13z"/>
</g>
</svg>
